<?xml version="1.0" encoding="UTF-8"?>
<svg width="720px" height="800px" viewBox="0 0 720 800" version="1.1" xmlns="http://www.w3.org/2000/svg" xmlns:xlink="http://www.w3.org/1999/xlink">
    <!-- Generator: Sketch 52.6 (67491) - http://www.bohemiancoding.com/sketch -->
    <title>bg-blocks</title>
    <desc>Created with Sketch.</desc>
    <g id="bg-blocks" stroke="none" stroke-width="1" fill="none" fill-rule="evenodd" opacity="0.05">
        <path d="M640,560 L640,640 L560,640 L560,560 L560,480 L640,480 L640,560 Z M640,320 L640,400 L560,400 L560,320 L560,240 L640,240 L640,320 Z M80,240 L80,160 L160,160 L160,240 L160,320 L80,320 L80,240 Z M80,400 L80,480 L0,480 L0,400 L0,320 L80,320 L80,400 Z M320,640 L320,720 L240,720 L240,640 L240,560 L320,560 L400,560 L400,640 L320,640 Z M400,320 L480,320 L480,400 L400,400 L400,320 Z M640,640 L720,640 L720,720 L640,720 L640,640 Z M160,480 L240,480 L240,560 L160,560 L160,480 Z M80,560 L160,560 L160,640 L80,640 L80,560 Z M320,720 L400,720 L400,800 L320,800 L320,720 Z M160,320 L240,320 L240,400 L160,400 L160,320 Z M400,240 L400,320 L320,320 L240,320 L240,240 L320,240 L320,160 L320,80 L400,80 L400,160 L480,160 L480,240 L400,240 Z M560,0 L640,0 L640,80 L560,80 L560,0 Z M480,80 L560,80 L560,160 L480,160 L480,80 Z M320,400 L400,400 L400,480 L320,480 L320,400 Z M0,80 L80,80 L80,160 L0,160 L0,80 Z M80,0 L160,0 L160,80 L80,80 L80,0 Z M160,80 L240,80 L240,160 L160,160 L160,80 Z M640,400 L720,400 L720,480 L640,480 L640,400 Z M400,480 L480,480 L480,560 L400,560 L400,480 Z" id="Combined-Shape" fill="#00BAFE"></path>
    </g>
</svg>