<?xml version="1.0" encoding="UTF-8"?>
<svg width="320px" height="320px" viewBox="0 0 320 320" version="1.1" xmlns="http://www.w3.org/2000/svg" xmlns:xlink="http://www.w3.org/1999/xlink">
    <g id="gun-preset" stroke="none" stroke-width="1" fill="none" fill-rule="evenodd">
        <g id="gun" transform="translate(41.000000, 0.000000)" fill="currentColor">
            <path d="M239,80 L279,80 L279,120 L279,160 L239,160 L239,120 L199,120 L199,80 L159,80 L159,40 L119,40 L119,0 L159,0 L199,0 L239,0 L239,40 L239,80 Z M119,200 L119,239 L119,279 L80,279 L40,279 L40,239 L79,239 L79,200 L79,160 L119,160 L119,200 Z M0,199 L40,199 L40,239 L0,239 L0,199 Z" id="Combined-Shape"></path>
        </g>
        <g id="grid" stroke="currentColor" stroke-width="5">
            <path d="M40.5,-2.84217094e-14 L40.5,320" id="Line-3"></path>
            <path d="M160,-119.5 L160,200.5" id="Line-3-Copy-6" transform="translate(160.000000, 40.500000) rotate(-270.000000) translate(-160.000000, -40.500000) "></path>
            <path d="M160,-80 L160,240" id="Line-3-Copy-7" transform="translate(160.000000, 80.000000) rotate(-270.000000) translate(-160.000000, -80.000000) "></path>
            <path d="M160,-40 L160,280" id="Line-3-Copy-8" transform="translate(160.000000, 120.000000) rotate(-270.000000) translate(-160.000000, -120.000000) "></path>
            <path d="M160,-6.19171381e-13 L160,320" id="Line-3-Copy-9" transform="translate(160.000000, 160.000000) rotate(-270.000000) translate(-160.000000, -160.000000) "></path>
            <path d="M160,40 L160,360" id="Line-3-Copy-10" transform="translate(160.000000, 200.000000) rotate(-270.000000) translate(-160.000000, -200.000000) "></path>
            <path d="M160,80 L160,400" id="Line-3-Copy-11" transform="translate(160.000000, 240.000000) rotate(-270.000000) translate(-160.000000, -240.000000) "></path>
            <path d="M160,120 L160,440" id="Line-3-Copy-12" transform="translate(160.000000, 280.000000) rotate(-270.000000) translate(-160.000000, -280.000000) "></path>
            <path d="M80,-5.68434189e-14 L80,320" id="Line-3"></path>
            <path d="M120.5,-5.68434189e-14 L120.5,320" id="Line-3-Copy"></path>
            <path d="M160.5,0 L160.5,320" id="Line-3-Copy-2"></path>
            <path d="M200,2.84217094e-14 L200,320" id="Line-3-Copy-3"></path>
            <path d="M240,2.84217094e-14 L240,320" id="Line-3-Copy-4"></path>
            <path d="M280,2.84217094e-14 L280,320" id="Line-3-Copy-5"></path>
            <rect id="Rectangle" x="2.5" y="2.5" width="315" height="315"></rect>
        </g>
    </g>
</svg>